<svg width="60" height="60" viewBox="0 0 60 60" fill="none" xmlns="http://www.w3.org/2000/svg">
<path d="M36.8915 59.1883C53.0129 55.3825 62.9967 39.2283 59.1908 23.1075C55.3849 6.98675 39.23 -2.9966 23.1085 0.809136C6.98705 4.61487 -2.99673 20.7691 0.809171 36.8899C4.61507 53.0107 20.77 62.994 36.8915 59.1883Z" fill="#5367FF"/>
<path d="M59.1906 23.1082C58.6479 20.8033 57.8505 18.6257 56.8387 16.5889L56.8321 16.5956L37.9433 34.0564C36.764 35.1485 35.0084 35.3361 33.6214 34.5254L25.5942 29.8218C24.2943 29.0647 22.6661 29.1786 21.4868 30.11C16.515 34.043 3.78402 44.1134 3.6031 44.2608C9.88149 55.9059 23.3964 62.3783 36.8913 59.189C53.0127 55.3832 62.9965 39.229 59.1906 23.1082Z" fill="#00F3BB"/>
</svg>
