<svg fill="currentColor" preserveAspectRatio="xMidYMid meet" height="24" width="25" viewBox="0 0 25 24" xmlns="http://www.w3.org/2000/svg" style="vertical-align: middle;"><g fill="#252680" fill-rule="evenodd"><path d="M17.035 21.783h-1.948v-3.771h1.89c.552 0 1.017.232 1.337.551.145.174.32.32.378.551.378.957 0 2.002-.872 2.466-.233.029-.553.203-.785.203zm-.349-6.265h-1.599V12.53H16.6c.378 0 .901.145 1.134.406.988.725.697 1.973-.466 2.437-.116 0-.436.145-.581.145zM.029 10.268c0 1.508.93 1.914 2.268 1.914h2.5v5.105c.872 0 4.709.087 5.348-.087.233-.087.465-.145.553-.232.32-.32.465-.696.465-1.247v-1.828H8.808v1.016h-1.25v-2.263h5.03v9.02H3.226c-.087 0-.698-.695-.785-.782-.32-.32-.698-.697-1.018-.929l-.232-.232C1.047 19.578.087 18.534 0 18.534v5.25h17.355c.785 0 1.57-.232 2.209-.638.087-.087.145-.087.233-.145.465-.406.697-.638 1.104-1.247.465-.783.465-1.19.465-2.03 0-.697-.32-1.48-.785-2.031-.32-.406-.784-.696-1.191-.928-.088-.087-.146-.087-.233-.087-.145-.087-.145 0-.145-.145.145-.087.465-.32.64-.406.551-.464.93-1.334.93-2.205 0-.783-.088-1.189-.466-1.885-.465-.783-1.192-1.421-2.122-1.711-.407-.145-1.017-.32-1.57-.32H7.558v-2.03h1.337v.987h2.355V6.845c0-.464-.407-.87-.698-1.102-.32-.232-.872-.406-1.424-.406H4.797v4.38H2.82V4.496c0-.087 1.337-1.334 1.57-1.567.087-.087.465-.55.552-.55h15.32c.087 0 1.017.928 1.104 1.015.087.087 1.018 1.015 1.018 1.102v2.987c0 .087-.32.406-.407.406l-1.89 1.973h3.547c.465 0 .32-.087.872-.551.087-.087.32-.32.32-.406V.087c0-.087 0-.087-.088-.087H0v10.268h.03z"></path><path d="M22.5 21.928c0 .145-.552.55-.698.696-.232.232-1.104 1.073-1.192 1.16h4.1c.087 0 .145 0 .145-.087v-9.92H22.5v8.15zM24.074 11.111c.499 0 .926.427.926.926a.943.943 0 0 1-.926.926.943.943 0 0 1-.926-.926c0-.499.451-.926.926-.926z"></path></g></svg>